<svg width="24" height="21" viewBox="0 0 27 21" fill="none" xmlns="http://www.w3.org/2000/svg">
<path fill-rule="evenodd" clip-rule="evenodd" d="M8.98753 0.898671C8.91738 0.914038 8.54435 0.995786 8.15857 1.08034C6.48912 1.44635 4.05761 2.34405 3.86191 2.66664C3.80644 2.75801 3.73731 2.83275 3.7083 2.83275C3.67929 2.83275 3.67329 2.86144 3.69497 2.89651C3.71665 2.93159 3.70396 2.96028 3.66685 2.96028C3.62974 2.96028 3.59932 2.99344 3.59932 3.03399C3.59932 3.07448 3.52759 3.2017 3.43991 3.31667C3.35223 3.43164 3.2805 3.54144 3.2805 3.5607C3.2805 3.57995 3.1624 3.7886 3.0181 4.0244C2.8738 4.26014 2.5558 4.8561 2.31151 5.34862C2.06716 5.84121 1.82657 6.32035 1.77684 6.41345C1.72704 6.50655 1.68635 6.61329 1.68635 6.65072C1.68635 6.68809 1.61902 6.8702 1.53669 7.05531C0.954068 8.36576 0.451849 10.2263 0.146411 12.2063C0.0213667 13.0165 0.00332101 13.3874 0.000132725 15.2033C-0.00184401 16.3431 0.0184972 17.3474 0.0452788 17.4351C0.0767153 17.5381 0.268523 17.7072 0.587287 17.9133C0.85861 18.0886 1.09493 18.2485 1.11246 18.2686C1.13 18.2887 1.18739 18.3245 1.23999 18.348C1.2926 18.3716 1.52216 18.5101 1.75012 18.6558C2.72369 19.2784 4.29877 20.0547 5.28912 20.4002C5.56968 20.4981 5.83514 20.6062 5.87895 20.6405C5.92282 20.6747 5.95866 20.687 5.95866 20.6678C5.95866 20.6486 6.10876 20.6857 6.29221 20.7503C6.4756 20.8149 6.64707 20.8546 6.67321 20.8384C6.69936 20.8223 6.82842 20.6453 6.96003 20.4452C7.09158 20.2451 7.23601 20.0432 7.28096 19.9965C7.32592 19.9499 7.34346 19.8781 7.31999 19.8371C7.29652 19.7961 7.30143 19.7845 7.33096 19.8113C7.38242 19.8581 7.51161 19.6508 7.81851 19.0292C7.89643 18.8714 7.9857 18.7248 8.01688 18.7033C8.06337 18.6714 7.94394 18.5864 7.80786 18.5546C7.70692 18.5309 7.11843 18.2574 6.56443 17.9765C5.85363 17.6163 5.76532 17.4904 6.06763 17.2686C6.30803 17.0923 6.50092 17.0507 6.63999 17.1452C6.70363 17.1884 6.84181 17.255 6.94702 17.2931C7.05224 17.3312 7.42527 17.4676 7.77598 17.5962C8.48072 17.8545 8.51254 17.8641 9.4606 18.1012C10.3343 18.3197 11.0832 18.4344 12.1918 18.5197C14.3074 18.6826 17.0321 18.2302 18.9351 17.4001C19.7218 17.057 19.6994 17.0627 19.8958 17.1521C20.1542 17.2697 20.3061 17.4009 20.3054 17.5059C20.3047 17.5998 19.4879 18.0697 18.705 18.4266C18.4468 18.5442 18.225 18.6723 18.2121 18.711C18.1992 18.7498 18.231 18.8301 18.2829 18.8895C18.3348 18.9488 18.4386 19.1265 18.5137 19.2843C18.657 19.5857 18.8961 19.9935 19.0559 20.2089C19.1079 20.279 19.2374 20.4569 19.3437 20.6042C19.5399 20.8761 19.6342 20.903 19.9033 20.7637C19.9669 20.7307 20.2916 20.6108 20.6248 20.4972C21.5008 20.1984 22.5993 19.7102 23.4305 19.2501C23.922 18.978 25.0429 18.3119 25.0884 18.2648C25.1387 18.2127 25.8587 17.7288 25.9888 17.6596C26.0533 17.6253 26.1246 17.5536 26.1472 17.5002C26.2277 17.3098 26.2522 14.0949 26.1791 13.3009C25.9292 10.5854 25.2014 7.98208 24.0322 5.6225C23.9496 5.45594 23.9024 5.31916 23.9273 5.31865C23.9521 5.31808 23.9422 5.29659 23.9051 5.27083C23.8681 5.24507 23.7788 5.10918 23.7067 4.9689C23.6346 4.82861 23.4946 4.55602 23.3956 4.36313C23.2967 4.17023 23.1955 3.99807 23.1707 3.98053C23.1459 3.963 23.0588 3.81952 22.9773 3.6617C22.8957 3.50388 22.7778 3.31915 22.7153 3.25112C22.6527 3.18314 22.6015 3.08992 22.6015 3.04388C22.6015 2.9979 22.5728 2.96028 22.5377 2.96028C22.5027 2.96028 22.473 2.92444 22.4719 2.88057C22.4658 2.65312 22.0997 2.42267 21.1349 2.03887C20.9771 1.97612 20.7906 1.90132 20.7204 1.87263C20.6016 1.82404 20.3145 1.73069 20.2422 1.7171C20.2246 1.71385 19.9807 1.63695 19.7002 1.54621C18.685 1.21807 17.7329 0.975126 17.1173 0.887257L16.8299 0.846191L16.6298 1.24964C16.5198 1.47154 16.3653 1.79241 16.2865 1.96267C16.1469 2.26434 16.1374 2.27135 15.9131 2.23565C14.3023 1.97899 11.7866 1.97765 10.2922 2.23265C10.0704 2.27053 10.0633 2.26491 9.89364 1.91835C9.79856 1.72425 9.72083 1.54462 9.72083 1.51917C9.72083 1.4938 9.63175 1.33413 9.5229 1.16451C9.3309 0.865321 9.27256 0.836371 8.98753 0.898671ZM9.29124 9.21289C9.635 9.30835 10.265 9.69885 10.4358 9.92228C10.5161 10.0272 10.6187 10.1528 10.6641 10.2013C10.7094 10.2498 10.8221 10.4554 10.9145 10.6581C11.0577 10.9721 11.0854 11.1305 11.1013 11.7281C11.1173 12.3269 11.0987 12.4901 10.9741 12.844C10.7123 13.5872 10.3752 13.972 9.65401 14.3511C9.34136 14.5154 9.24539 14.5336 8.70058 14.5324C8.17592 14.5312 8.05215 14.509 7.77598 14.3665C7.16281 14.0501 6.66186 13.4639 6.44755 12.8121C6.16889 11.9645 6.33322 10.7294 6.79545 10.1977C6.85641 10.1275 6.9988 9.96086 7.11192 9.82727C7.56817 9.28832 8.55806 9.00929 9.29124 9.21289ZM18.147 9.2368C19.4468 9.63126 20.1875 11.1139 19.8306 12.6072C19.6425 13.3948 19.1732 13.993 18.4602 14.3543C18.1457 14.5136 18.0381 14.5338 17.5002 14.5338C16.963 14.5338 16.8535 14.5134 16.5329 14.3534C15.6473 13.9117 15.0775 12.945 15.0794 11.8875C15.0798 11.6595 15.109 11.3582 15.1443 11.2179C15.1795 11.0777 15.2203 10.9122 15.2349 10.8504C15.2924 10.6071 15.632 10.0614 15.8717 9.8274C16.4834 9.23004 17.3682 9.00042 18.147 9.2368Z" fill="white"></path>
</svg>