<svg width="19" height="13" viewBox="0 0 19 13" fill="none" xmlns="http://www.w3.org/2000/svg">
<path d="M17.9505 2.01667C17.8515 1.62117 17.6499 1.25881 17.3661 0.966172C17.0822 0.673534 16.7261 0.460987 16.3339 0.35C14.9005 7.45058e-08 9.16719 0 9.16719 0C9.16719 0 3.43385 2.48353e-08 2.00052 0.383333C1.60822 0.494321 1.25217 0.706867 0.968307 0.999505C0.684448 1.29214 0.482842 1.65451 0.383852 2.05C0.12153 3.50463 -0.00678506 4.98026 0.000518332 6.45833C-0.00883226 7.94754 0.119491 9.43442 0.383852 10.9C0.492984 11.2832 0.699107 11.6318 0.982305 11.9121C1.2655 12.1923 1.6162 12.3948 2.00052 12.5C3.43385 12.8833 9.16719 12.8833 9.16719 12.8833C9.16719 12.8833 14.9005 12.8833 16.3339 12.5C16.7261 12.389 17.0822 12.1765 17.3661 11.8838C17.6499 11.5912 17.8515 11.2288 17.9505 10.8333C18.2108 9.38966 18.3391 7.92528 18.3339 6.45833C18.3432 4.96913 18.2149 3.48225 17.9505 2.01667V2.01667Z" fill="white"></path>
<path class="innr_you_tube" d="M7.29218 9.18334L12.0839 6.45834L7.29218 3.73334V9.18334Z" fill="#0B1307"></path>
</svg>