<svg width="19" height="15" viewBox="0 0 19 15" fill="none" xmlns="http://www.w3.org/2000/svg">
<path d="M18.6677 0.00837975C17.8696 0.571278 16.9861 1.0018 16.051 1.28338C15.5491 0.706305 14.8821 0.29729 14.1402 0.111652C13.3983 -0.0739866 12.6172 -0.0272906 11.9027 0.245424C11.1882 0.518139 10.5747 1.00371 10.1451 1.63648C9.7156 2.26924 9.49074 3.01866 9.50099 3.78338V4.61671C8.03652 4.65469 6.58539 4.32989 5.27684 3.67125C3.96828 3.01261 2.84293 2.04058 2.00099 0.841713C2.00099 0.841713 -1.33234 8.34171 6.16766 11.675C4.45143 12.84 2.40696 13.4242 0.334328 13.3417C7.83433 17.5084 17.001 13.3417 17.001 3.75838C17.0002 3.52626 16.9779 3.29471 16.9343 3.06671C17.7848 2.22796 18.385 1.16897 18.6677 0.00837975V0.00837975Z" fill="white"></path>
</svg>